<svg xmlns="http://www.w3.org/2000/svg" xmlns:xlink="http://www.w3.org/1999/xlink" width="500" zoomAndPan="magnify" viewBox="0 0 375 374.999991" height="500" preserveAspectRatio="xMidYMid meet" version="1.0"><rect x="-37.5" width="450" fill="rgb(100%, 100%, 100%)" y="-37.499999" height="449.999989" fill-opacity="1"/><rect x="-37.5" width="450" fill="rgb(100%, 100%, 100%)" y="-37.499999" height="449.999989" fill-opacity="1"/><rect x="-37.5" width="450" fill="rgb(100%, 100%, 100%)" y="-37.499999" height="449.999989" fill-opacity="1"/><rect x="-37.5" width="450" fill="rgb(100%, 100%, 100%)" y="-37.499999" height="449.999989" fill-opacity="1"/><path stroke-linecap="butt" transform="matrix(0.939495, 0, 0, 0.939495, 14.73429, 186.514982)" fill="none" stroke-linejoin="miter" d="M 49.361695 56.085479 C 54.197236 54.098042 58.034901 49.736492 58.034901 43.574607 C 58.034901 31.770565 47.748462 23.617085 31.254402 23.617085 L 3.667285 23.617085 L 3.667285 96.000523 L 35.661688 96.000523 C 52.110012 96.000523 62.683341 86.853325 62.683341 73.485943 C 62.683341 64.571584 57.419544 58.218439 49.361695 56.085479 Z M 26.373124 42.339736 L 29.691062 42.339736 C 34.28545 42.339736 35.852947 44.52259 35.852947 47.033911 C 35.852947 49.499497 34.239714 51.869452 30.921776 51.869452 L 26.373124 51.869452 Z M 33.009 76.945247 L 26.373124 76.945247 L 26.373124 66.517442 L 33.765723 66.517442 C 37.274921 66.517442 39.266515 68.791768 39.266515 71.540085 C 39.266515 74.525398 37.320657 76.945247 33.009 76.945247 Z M 79.510027 96.000523 L 125.586956 96.000523 L 125.586956 75.332014 L 102.735593 75.332014 L 102.735593 23.617085 L 79.510027 23.617085 Z M 180.100095 97.896487 C 202.282049 97.896487 219.395625 81.352533 219.395625 59.690306 C 219.395625 38.169445 202.282049 21.671227 180.100095 21.671227 C 157.822511 21.671227 140.708936 38.169445 140.708936 59.690306 C 140.708936 81.352533 157.822511 97.896487 180.100095 97.896487 Z M 180.100095 76.658358 C 170.952898 76.658358 163.934503 69.452861 163.934503 59.736042 C 163.934503 50.16059 170.952898 42.909357 180.100095 42.909357 C 189.201557 42.909357 196.170058 50.16059 196.170058 59.736042 C 196.170058 69.452861 189.201557 76.658358 180.100095 76.658358 Z M 232.575905 96.000523 L 259.169303 96.000523 L 268.836228 79.123943 L 270.923452 73.910041 L 273.056412 79.219573 L 282.727494 96.000523 L 310.314611 96.000523 L 285.949803 57.698712 L 307.138038 23.617085 L 280.690164 23.617085 L 273.339143 37.030203 L 271.91717 40.967656 L 270.64072 37.080097 L 263.243964 23.617085 L 235.798213 23.617085 L 256.940713 57.698712 Z M 348.662158 97.896487 C 364.732121 97.896487 376.394798 89.551749 376.394798 73.722939 C 376.394798 59.166421 364.92338 53.387056 353.880218 50.019224 C 347.951171 48.168995 346.342096 47.458008 346.342096 45.042317 C 346.342096 43.383348 347.527074 42.152634 351.792994 42.152634 C 357.622254 42.152634 366.677979 45.137947 371.937618 49.449603 L 371.937618 26.602398 C 365.11464 23.425826 358.287504 21.721121 351.273267 21.721121 C 335.012044 21.721121 323.540627 29.920336 323.540627 44.285594 C 323.540627 57.461716 329.561146 62.912615 342.787162 67.748156 C 348.046801 69.64412 353.119338 69.926852 353.119338 73.673045 C 353.119338 76.092895 351.319003 77.227979 348.662158 77.227979 C 342.313171 77.227979 332.026732 72.014076 325.008336 66.845909 L 325.008336 91.260611 C 331.361481 94.765651 338.995233 97.896487 348.662158 97.896487 Z M 348.662158 97.896487 " stroke="rgb(0%, 0%, 0%)" stroke-width="3.64053" stroke-opacity="1" stroke-miterlimit="4"/><path fill="rgb(0%, 0%, 0%)" d="M 135.507812 70.773438 L 239.007812 70.773438 L 239.007812 174.273438 L 135.507812 174.273438 L 135.507812 70.773438 " fill-opacity="1" fill-rule="nonzero"/><path fill="rgb(100%, 100%, 100%)" d="M 165.214844 101.214844 L 213.214844 101.214844 L 213.214844 149.214844 L 165.214844 149.214844 L 165.214844 101.214844 " fill-opacity="1" fill-rule="nonzero"/><path stroke-linecap="round" transform="matrix(4.549596, 0.000000000000003808, -0.000000000000003767, 4.5, 172.485154, 112.256784)" fill="none" stroke-linejoin="miter" d="M 0.500388 0.000228594 L 6.58867 0.000228594 " stroke="rgb(0%, 0%, 0%)" stroke-width="1" stroke-opacity="1" stroke-miterlimit="4"/><path stroke-linecap="round" transform="matrix(4.549596, 0.000000000000003808, -0.000000000000003767, 4.5, 172.485154, 140.450835)" fill="none" stroke-linejoin="miter" d="M 0.500388 -0.000359117 L 6.58867 -0.000359117 " stroke="rgb(0%, 0%, 0%)" stroke-width="1" stroke-opacity="1" stroke-miterlimit="4"/><path stroke-linecap="round" transform="matrix(0.000000000000003309, -4.549596, 4.5, 0.000000000000003273, 203.820152, 141.953765)" fill="none" stroke-linejoin="miter" d="M 0.499842 0.0000356854 L 6.588982 0.0000356854 " stroke="rgb(0%, 0%, 0%)" stroke-width="1" stroke-opacity="1" stroke-miterlimit="4"/><path stroke-linecap="round" transform="matrix(0.000000000000003309, -4.549596, 4.5, 0.000000000000003273, 173.798578, 141.953765)" fill="none" stroke-linejoin="miter" d="M 0.499842 -0.000378419 L 6.588982 -0.000378419 " stroke="rgb(0%, 0%, 0%)" stroke-width="1" stroke-opacity="1" stroke-miterlimit="4"/></svg>