<svg xmlns="http://www.w3.org/2000/svg" xmlns:xlink="http://www.w3.org/1999/xlink" width="500" zoomAndPan="magnify" viewBox="0 0 375 374.999991" height="500" preserveAspectRatio="xMidYMid meet" version="1.0"><rect x="-37.5" width="450" fill="rgb(100%, 100%, 100%)" y="-37.499999" height="449.999989" fill-opacity="1"/><rect x="-37.5" width="450" fill="rgb(0%, 0%, 0%)" y="-37.499999" height="449.999989" fill-opacity="1"/><rect x="-37.5" width="450" fill="rgb(100%, 100%, 100%)" y="-37.499999" height="449.999989" fill-opacity="1"/><rect x="-37.5" width="450" fill="rgb(0%, 0%, 0%)" y="-37.499999" height="449.999989" fill-opacity="1"/><path fill="rgb(100%, 100%, 100%)" d="M 133.621094 73.265625 L 229.621094 73.265625 L 229.621094 169.265625 L 133.621094 169.265625 L 133.621094 73.265625 " fill-opacity="1" fill-rule="nonzero"/><path stroke-linecap="butt" transform="matrix(0.87422, 0, 0, 0.87422, 23.139521, 179.012991)" fill="none" stroke-linejoin="miter" d="M 49.362257 56.088756 C 54.196927 54.095907 58.035172 49.734874 58.035172 43.573128 C 58.035172 31.767955 47.749211 23.617828 31.252353 23.617828 L 3.665246 23.617828 L 3.665246 95.999356 L 35.662537 95.999356 C 52.110244 95.999356 62.682174 86.852805 62.682174 73.483737 C 62.682174 64.574003 57.41855 58.220121 49.362257 56.088756 Z M 26.373001 42.339885 L 29.688458 42.339885 C 34.286309 42.339885 35.850204 44.520401 35.850204 47.03157 C 35.850204 49.498056 34.241627 51.86624 30.921701 51.86624 L 26.373001 51.86624 Z M 33.008384 76.942179 L 26.373001 76.942179 L 26.373001 66.517701 L 33.76799 66.517701 C 37.275583 66.517701 39.263964 68.792052 39.263964 71.540038 C 39.263964 74.524844 37.320266 76.942179 33.008384 76.942179 Z M 79.509684 95.999356 L 125.586499 95.999356 L 125.586499 75.333601 L 102.735759 75.333601 L 102.735759 23.617828 L 79.509684 23.617828 Z M 180.09941 97.893903 C 202.284377 97.893903 219.397857 81.352362 219.397857 59.690183 C 219.397857 38.170988 202.284377 21.67413 180.09941 21.67413 C 157.820609 21.67413 140.707129 38.170988 140.707129 59.690183 C 140.707129 81.352362 157.820609 97.893903 180.09941 97.893903 Z M 180.09941 76.660678 C 170.952858 76.660678 163.937672 69.453356 163.937672 59.739334 C 163.937672 50.163828 170.952858 42.907355 180.09941 42.907355 C 189.201279 42.907355 196.167314 50.163828 196.167314 59.739334 C 196.167314 69.453356 189.201279 76.660678 180.09941 76.660678 Z M 232.574789 95.999356 L 259.165472 95.999356 L 268.83928 79.122695 L 270.921494 73.912691 L 273.057328 79.220997 L 282.726667 95.999356 L 310.313775 95.999356 L 285.948291 57.697334 L 307.136834 23.617828 L 280.689136 23.617828 L 273.338829 37.031578 L 271.917919 40.963657 L 270.639993 37.080729 L 263.245004 23.617828 L 235.796413 23.617828 L 256.940273 57.697334 Z M 348.664949 97.893903 C 364.732852 97.893903 376.395041 89.55164 376.395041 73.720555 C 376.395041 59.167395 364.924988 53.385452 353.879421 50.020843 C 347.954493 48.170979 346.341447 47.460524 346.341447 45.043189 C 346.341447 43.38546 347.525539 42.152217 351.792738 42.152217 C 357.623833 42.152217 366.676551 45.137023 371.940174 49.448905 L 371.940174 26.602633 C 365.112656 23.425692 358.285137 21.718812 351.269951 21.718812 C 335.014379 21.718812 323.539858 29.922559 323.539858 44.283583 C 323.539858 57.460515 329.563088 62.911806 342.784703 67.746476 C 348.048327 69.645491 353.119815 69.926993 353.119815 73.671404 C 353.119815 76.093207 351.319102 77.228148 348.664949 77.228148 C 342.311067 77.228148 332.025106 72.013675 325.00992 66.848354 L 325.00992 91.25852 C 331.363802 94.766113 338.995609 97.893903 348.664949 97.893903 Z M 348.664949 97.893903 " stroke="rgb(100%, 100%, 100%)" stroke-width="3.64053" stroke-opacity="1" stroke-miterlimit="4"/><path fill="rgb(0%, 0%, 0%)" d="M 160.035156 98.511719 L 204.285156 98.511719 L 204.285156 142.761719 L 160.035156 142.761719 L 160.035156 98.511719 " fill-opacity="1" fill-rule="nonzero"/><path stroke-linecap="round" transform="matrix(3.031978, 0.000000000000002538, -0.000000000000002697, 3.221476, 166.788363, 108.303113)" fill="none" stroke-linejoin="miter" d="M 0.500111 0.000488786 L 9.394882 0.000488786 " stroke="rgb(100%, 100%, 100%)" stroke-width="1" stroke-opacity="1" stroke-miterlimit="4"/><path stroke-linecap="round" transform="matrix(3.031978, 0.000000000000002538, -0.000000000000002697, 3.221476, 166.788363, 134.538258)" fill="none" stroke-linejoin="miter" d="M 0.500111 0.000249865 L 9.394882 0.000249865 " stroke="rgb(100%, 100%, 100%)" stroke-width="1" stroke-opacity="1" stroke-miterlimit="4"/><path stroke-linecap="round" transform="matrix(0.000000000000002205, -3.031978, 3.221476, 0.000000000000002343, 195.473708, 136.421782)" fill="none" stroke-linejoin="miter" d="M 0.499849 -0.000326625 L 9.394621 -0.000326625 " stroke="rgb(100%, 100%, 100%)" stroke-width="1" stroke-opacity="1" stroke-miterlimit="4"/><path stroke-linecap="round" transform="matrix(0.000000000000002205, -3.031978, 3.221476, 0.000000000000002343, 167.53801, 136.421782)" fill="none" stroke-linejoin="miter" d="M 0.499849 0.000326621 L 9.394621 0.000326621 " stroke="rgb(100%, 100%, 100%)" stroke-width="1" stroke-opacity="1" stroke-miterlimit="4"/></svg>