<svg xmlns="http://www.w3.org/2000/svg" xmlns:xlink="http://www.w3.org/1999/xlink" width="300" zoomAndPan="magnify" viewBox="0 0 224.87999 112.499997" height="150" preserveAspectRatio="xMidYMid meet" version="1.0"><defs><clipPath id="id1"><path d="M 0.4375 0 L 224.324219 0 L 224.324219 112.003906 L 0.4375 112.003906 Z M 0.4375 0 " clip-rule="nonzero"/></clipPath><clipPath id="id2"><path d="M 0.4375 21 L 83 21 L 83 84 L 0.4375 84 Z M 0.4375 21 " clip-rule="nonzero"/></clipPath><clipPath id="id3"><path d="M 131 20 L 224.324219 20 L 224.324219 85 L 131 85 Z M 131 20 " clip-rule="nonzero"/></clipPath></defs><g clip-path="url(#id1)"><path fill="rgb(100%, 100%, 100%)" d="M 0.4375 0 L 224.441406 0 L 224.441406 119.46875 L 0.4375 119.46875 Z M 0.4375 0 " fill-opacity="1" fill-rule="nonzero"/><path fill="rgb(100%, 100%, 100%)" d="M 0.4375 0 L 224.441406 0 L 224.441406 112.003906 L 0.4375 112.003906 Z M 0.4375 0 " fill-opacity="1" fill-rule="nonzero"/><path fill="rgb(100%, 100%, 100%)" d="M 0.4375 0 L 224.441406 0 L 224.441406 112.003906 L 0.4375 112.003906 Z M 0.4375 0 " fill-opacity="1" fill-rule="nonzero"/><path fill="rgb(100%, 100%, 100%)" d="M 0.4375 0 L 224.441406 0 L 224.441406 112.003906 L 0.4375 112.003906 Z M 0.4375 0 " fill-opacity="1" fill-rule="nonzero"/></g><g clip-path="url(#id2)"><path stroke-linecap="butt" transform="matrix(0.542121, 0, 0, 0.542121, 3.753447, 19.950055)" fill="none" stroke-linejoin="miter" d="M 49.358484 56.086026 C 54.193371 54.09731 58.0339 49.737985 58.0339 43.570082 C 58.0339 31.767482 47.751659 23.618068 31.251077 23.618068 L 3.668444 23.618068 L 3.668444 95.99726 L 35.660839 95.99726 C 52.110983 95.99726 62.681444 86.853488 62.681444 73.487295 C 62.681444 64.574099 57.421433 58.218853 49.358484 56.086026 Z M 26.372957 42.337943 L 29.687484 42.337943 C 34.28459 42.337943 35.855388 44.521207 35.855388 47.035925 C 35.855388 49.500204 34.241357 51.870812 30.919624 51.870812 L 26.372957 51.870812 Z M 33.009217 76.945933 L 26.372957 76.945933 L 26.372957 66.512377 L 33.765794 66.512377 C 37.27487 66.512377 39.263586 68.789313 39.263586 71.541812 C 39.263586 74.524887 37.318103 76.945933 33.009217 76.945933 Z M 79.513479 95.99726 L 125.585411 95.99726 L 125.585411 75.331902 L 102.736788 75.331902 L 102.736788 23.618068 L 79.513479 23.618068 Z M 79.513479 95.99726 " stroke="rgb(0%, 0%, 0%)" stroke-width="3.64053" stroke-opacity="1" stroke-miterlimit="4"/></g><g clip-path="url(#id3)"><path stroke-linecap="butt" transform="matrix(0.542121, 0, 0, 0.542121, 3.753447, 19.950055)" fill="none" stroke-linejoin="miter" d="M 256.170588 95.99726 L 282.758863 95.99726 L 292.428636 79.121992 L 294.51823 73.91242 L 296.651056 79.222869 L 306.32083 95.99726 L 333.910668 95.99726 L 309.541686 57.700057 L 330.733045 23.618068 L 304.281675 23.618068 L 296.93207 37.034699 L 295.512588 40.968899 L 294.23001 37.077932 L 286.837173 23.618068 L 259.391444 23.618068 L 280.532365 57.700057 Z M 372.25831 97.899511 C 388.326563 97.899511 399.985053 89.555548 399.985053 73.717871 C 399.985053 59.169978 388.513906 53.383966 377.467883 50.019 C 371.544966 48.174393 369.930935 47.461049 369.930935 45.040003 C 369.930935 43.382739 371.119842 42.1506 375.385495 42.1506 C 381.21474 42.1506 390.272046 45.14088 395.532057 49.449766 L 395.532057 26.601143 C 388.708454 23.423519 381.877645 21.723023 374.866699 21.723023 C 358.603898 21.723023 347.132751 29.922876 347.132751 44.283426 C 347.132751 57.462276 353.156544 62.909629 366.378627 67.751722 C 371.638638 69.646767 376.711306 69.927781 376.711306 73.674638 C 376.711306 76.088479 374.909932 77.226947 372.25831 77.226947 C 365.903064 77.226947 355.620823 72.017375 348.602672 66.851035 L 348.602672 91.26325 C 354.957918 94.765121 362.588537 97.899511 372.25831 97.899511 Z M 372.25831 97.899511 " stroke="rgb(0%, 0%, 0%)" stroke-width="3.64053" stroke-opacity="1" stroke-miterlimit="4"/></g><path fill="rgb(0%, 0%, 0%)" d="M 77.964844 24.128906 L 137.699219 24.128906 L 137.699219 83.863281 L 77.964844 83.863281 L 77.964844 24.128906 " fill-opacity="1" fill-rule="nonzero"/><path fill="rgb(100%, 100%, 100%)" d="M 94.34375 39.785156 L 121.972656 39.785156 L 121.972656 67.410156 L 94.34375 67.410156 L 94.34375 39.785156 " fill-opacity="1" fill-rule="nonzero"/><path stroke-linecap="round" transform="matrix(2.272714, 0.000000000000001902, -0.000000000000001946, 2.324803, 98.533151, 46.019858)" fill="none" stroke-linejoin="miter" d="M 0.499322 -0.000140385 L 7.718113 -0.000140385 " stroke="rgb(0%, 0%, 0%)" stroke-width="1" stroke-opacity="1" stroke-miterlimit="4"/><path stroke-linecap="round" transform="matrix(2.272714, 0.000000000000001902, -0.000000000000001946, 2.324803, 98.533151, 62.288795)" fill="none" stroke-linejoin="miter" d="M 0.499322 0.00011512 L 7.718113 0.00011512 " stroke="rgb(0%, 0%, 0%)" stroke-width="1" stroke-opacity="1" stroke-miterlimit="4"/><path stroke-linecap="round" transform="matrix(0.000000000000001653, -2.272714, 2.324803, 0.000000000000001691, 116.484313, 63.285307)" fill="none" stroke-linejoin="miter" d="M 0.500226 0.0000267214 L 7.717298 0.0000267214 " stroke="rgb(0%, 0%, 0%)" stroke-width="1" stroke-opacity="1" stroke-miterlimit="4"/><path stroke-linecap="round" transform="matrix(0.000000000000001653, -2.272714, 2.324803, 0.000000000000001691, 99.160832, 63.285307)" fill="none" stroke-linejoin="miter" d="M 0.500226 -0.000290739 L 7.717298 -0.000290739 " stroke="rgb(0%, 0%, 0%)" stroke-width="1" stroke-opacity="1" stroke-miterlimit="4"/></svg>