<svg version="1.1" xmlns="http://www.w3.org/2000/svg" viewBox="0 0 336.5745105279034 235.32921469272424" width="673.1490210558068" height="470.65842938544847">
  <!-- svg-source:excalidraw -->
  
  <defs>
    <style>
      @font-face {
        font-family: "Virgil";
        src: url("https://excalidraw.com/Virgil.woff2");
      }
      @font-face {
        font-family: "Cascadia";
        src: url("https://excalidraw.com/Cascadia.woff2");
      }
    </style>
  </defs>
  <g stroke-opacity="0.2" fill-opacity="0.2" transform="translate(76.11331563748718 115.66183271847694) rotate(0 75.83333333333348 35.8011444921317)"><path d="M16.374370919665814 0.7357733435928822 L134.2811629926159 -1.124960284680128 L145.7163538385843 1.6397474295112007 L150.35528724529274 8.438643251914812 L150.46237955947532 14.789094522312979 L151.9292656990394 53.61960837841368 L149.69676356651314 66.45961179876869 L145.1768384624933 69.26078118074261 L133.88519205202599 72.56405548428941 L19.33129500051451 70.02036897515703 L6.131651458699537 67.35958005178296 L1.7566695919844024 65.76547124529426 L1.9236225067599229 59.85226701278367 L-0.9118013204114027 14.916667893246512 L2.8319304264463785 4.958035593418062 L11.774479310447976 2.8404548618787975 L16.58952938219023 -1.350082140415907" stroke="none" stroke-width="0" fill="#0099cc"></path><path d="M16.08557222982359 0.13421596959233284 M18.110497320196153 1.293253343552351 C43.98744939303624 0.8187292421972117, 72.83207190655015 0.29459615599268285, 133.35992883940477 1.9812300615012646 M18.445772376036764 -0.6445261742919683 C52.48409611317153 1.7102601661593373, 86.59812442489127 1.5244650378138478, 132.9340400048836 -0.09870111010968685 M133.76609442060132 0 C146.9647482428287 -0.12994049116969109, 151.30921741450877 7.534006477064928, 150.86409445727915 16.93745287706566 M133.6184522067501 1.162695188075304 C145.35110667101637 -0.8222534442320466, 149.47066014154555 4.935883269190332, 152.1950037871182 18.861713537885368 M152.6102350341782 16.88924037118864 C153.3352822340818 31.583814903074565, 152.57793453110176 42.33421752944291, 151.02898782367558 52.30628669113255 M152.49963384928853 18.059444561725975 C152.89288550227843 29.969041047240815, 151.00025903791152 43.878586034342575, 152.32108306946904 53.03589638732708 M151.66666666666717 53.70171673819757 C152.13066729034037 67.40953689797465, 147.53814862105594 70.08200589990068, 134.13778068174858 73.26980082368303 M150.08190139258951 55.49717173576689 C152.75763478024604 66.95724213386569, 144.21759031764762 71.81214207665819, 134.23551023968744 71.17329209105867 M135.2981187035634 71.94645184701133 C96.97559088454994 72.11288807896652, 57.3878233499603 69.85564647225418, 17.964806044599534 72.23197800343681 M134.72297214952548 71.04714188216079 C101.13064216141848 70.30946502780776, 66.70312807602144 70.88194779252868, 17.412515070414663 72.59436312554229 M17.900572246065856 71.60228898426342 C7.3612886897395455 70.19433478688646, 0.6429384164512157 64.91573208554331, 0.8217473439872265 52.267758345607284 M17.28681074281645 72.72076563214708 C4.785738562896391 70.21416194097895, 1.919493615068495 63.71172454024348, 2.284210490621626 52.826309534724416 M-1.2561524920165539 53.964774607125285 C-2.1407914778333597 40.26171509790058, 0.7922447303194116 28.652081339408284, -0.3131229691207409 19.14172981878233 M0.1029669251292944 54.01815965436733 C-0.7698753367841653 42.75601540492707, 0.16894198547001554 31.81486457894873, -0.4328149948269129 17.48795695615423 M0 17.900572246065856 C-1.1029487438499928 5.52804303235515, 7.957775615818342 -0.3875454477965832, 19.195253597697736 -0.43647537752985954 M0.7936894111335278 18.082137072584153 C-1.1667701190337538 7.206441537022133, 5.131994395806929 0.9271833812817931, 18.263674240498364 1.2963732516393063" stroke="#0099cc" stroke-width="2" fill="none"></path></g><g stroke-opacity="0.2" fill-opacity="0.2" transform="translate(108.65981063033087 71.94688279000184) rotate(0 42.310443490701346 15.947782546495091)"><path d="M9.267144616799825 -1.3678533844649792 L80.48485163119119 0.5204068021915402 L83.9476641816104 4.079148260005158 L86.1037488383258 27.366549979330358 L81.12329135078971 28.389819696945228 L77.73739596809685 30.60651274440596 L4.639395345993679 33.06551470183819 L-0.13245989660997726 28.706978808523473 L-1.664108831435442 7.776489053028101 L1.190900608923851 1.0303534493116722 L9.238830264764303 -0.12994049116969109" stroke="none" stroke-width="0" fill="#0099cc"></path><path d="M7.616442021089071 1.5671490617096424 M8.809666309612268 -0.30321963503956795 C27.35386715019509 -2.067321109886513, 47.26734975957674 0.9265893219753645, 74.80095285530626 1.6654501371085644 M8.474826013775939 0.6208600495010614 C31.351160521634515 -1.0052503811857068, 54.95981581501555 -0.08831189747064927, 77.48682809415698 -0.45089530013501644 M76.64699570815503 0 C83.81402168286732 -1.6262752823531628, 82.68673251188265 3.0875655648964226, 86.28682134664523 8.291635904567713 M77.95582851375877 -1.3316407017409801 C82.49652394087752 2.0402211284264924, 86.73497725660818 0.9096382107320014, 85.04832618172186 9.891529888580017 M84.32342832201333 8.730348761965535 C85.68057406544715 10.466807732181342, 84.90956293616969 15.444153555032646, 83.47697964870756 23.97310628610402 M84.80956194074228 7.724241260462786 C83.93705515575196 14.005455209506179, 84.89938374262324 19.873624912238906, 84.09841686808915 23.590153097538398 M84.6208869814025 23.921673819742423 C85.60935578859316 27.61539323542847, 80.35573718560627 31.418322522619462, 78.56075116600334 30.785270888784623 M83.64477263010012 25.90582210230015 C86.2244829469444 27.618454008257228, 82.70230240257224 31.067910687120353, 77.59200515374035 30.24651294151107 M75.88577205296099 30.86850522128651 C56.945442774060965 34.246706608587594, 37.98523510770978 33.39325070744166, 9.131298337238306 33.09195099441121 M76.02721363845706 32.39527870198498 C60.03387874271027 31.07506894784096, 44.690100960610955 31.190226730872425, 7.37581477138626 32.14474375029812 M7.9738912732474745 31.895565092989898 C0.6899766189711869 31.188389141538835, -0.09035249426960945 27.832350446922916, 0.2059338502585888 24.55455965208195 M7.108261283593649 31.070334513166642 C1.3895727023216666 31.39092855253974, 2.289555930532515 28.791924070274668, 1.4888835543766619 23.419727135583084 M0.8988816833146192 23.11265659625989 C0.8450273494660507 17.92558088401948, 0.628414346204099 11.748323837579601, -1.112612172924592 6.824195606658651 M-0.5788838241235317 24.32517752119264 C0.6330203887157776 17.227540298009604, 0.2566840393522025 11.106644224016717, -0.004631929283092973 7.654988499997477 M0 7.9738912732474745 C-1.8649490661919117 3.7015896079796136, 3.521380232061702 1.9766315408051014, 9.575931128221029 0.06583942845463753 M1.9811062030494213 9.95141867186355 C0.5752080136910078 2.9239926364007176, 0.9379651471706809 -0.6529312336817383, 9.382708659315877 -1.3759570920839903" stroke="#0099cc" stroke-width="2" fill="none"></path></g><g stroke-opacity="0.2" fill-opacity="0.2" transform="translate(161.9323428191783 200.59387849816085) rotate(0 25.386266094420762 12.367668097281694)"><path d="M4.557558766287749 -1.9341544695198536 L47.72372734362818 1.6953224336437995 L49.054401859060384 3.8500929135077735 L52.05355440022097 21.720930165876336 L49.06823086554743 26.187185936267653 L43.06841505583777 23.150570920485993 L5.273861649929835 24.757034235294142 L0.013448851340275625 22.205597467054314 L1.1494004912674427 4.89494801936764 L1.728439462068723 2.083891545119928 L4.749268046301787 0.0645010881125927" stroke="none" stroke-width="0" fill="#0099cc"></path><path d="M7.715858331602996 0.34416286274790764 M4.399824275356715 0.06423379853367805 C20.419497897612736 -0.16111588360054163, 32.08533164560118 -0.7112759339926925, 46.502453598048824 -1.1102942042052746 M5.945212763455694 -0.48805717565119267 C20.595467927332816 0.7194924787988636, 32.30597432717185 1.0058344439973803, 43.88472104151203 0.32146920822560787 M44.58869814020051 0 C49.82973082051144 1.9862699918448925, 50.01130853364738 1.034218144510251, 50.052832705476604 5.570072545391505 M43.3816311460401 1.6691248826682568 C50.04227229621725 1.3758437866345048, 49.32795682302239 2.363794565480512, 48.84882516017677 7.121853377391582 M50.3713495256115 5.990204000854874 C51.46339084532398 8.647216042962041, 49.95619843235443 11.521187378036302, 50.899878264341105 18.942868241815095 M50.33804027433829 5.916188438463611 C50.47364715369726 9.07746862143728, 50.59384703652367 10.829471131991216, 50.636854422709945 19.167077533726854 M50.772532188841424 18.551502145922736 C50.95409701535972 22.98979904307393, 49.838535261009795 23.720753482360383, 44.20115269240393 25.529025605697175 M51.85043142507347 17.82553430283721 C49.167915377528686 21.01595930131493, 50.62036081221418 22.821935669150193, 45.51588152148231 22.804334047999223 M45.843665513065 23.2653917361088 C30.634444703198895 23.427573800362627, 16.046481675315217 24.129809379853288, 7.785873903614466 24.801175623018285 M45.577013910603064 25.725889296088358 C37.63715838327974 25.51366245460619, 28.109849013793326 25.1512235970508, 6.299498778489416 23.98751071170344 M6.183834048640912 24.735336194563647 C0.4083022371868905 25.941506794471284, -0.938971858471632 21.563477894201554, -0.5677662901580334 19.904909927493886 M5.362937918585723 23.258242300529023 C4.24002269944207 25.11994031425937, -0.3745381677523254 21.342162605844116, -0.9192627871409058 16.41750406725611 M-0.37536253057052504 18.0605514939829 C0.17197822086414435 13.917600326826296, 0.47965466940818124 9.741296029476462, 1.1434798295381814 6.195967517405457 M-0.5219281454975627 18.734671805876673 C0.02124966564874703 14.982855643190364, -0.5044250070553095 11.707861387421993, -0.47467666139255904 6.645395802461188 M0 6.183834048640912 C1.2896595187485218 3.2159075261096772, 1.18235020795868 1.2757677249610424, 5.192026725691741 0.4687139205634594 M-1.416148405522108 7.2841510909618785 C0.3758779978379607 3.6681116524155555, 0.32773111900345664 -1.4422752326354384, 7.798376405333166 -2.22590010818094" stroke="#0099cc" stroke-width="2" fill="none"></path></g><g stroke-opacity="0.2" fill-opacity="0.2" transform="translate(83.76889503662869 200.49015889873408) rotate(0 25.386266094420762 12.367668097281694)"><path d="M4.873381986004298 -0.8315155319869518 L49.20788099432922 -0.7238045761652177 L51.37451136799202 1.8561985525482436 L48.77885652275429 20.7796869718327 L46.31801118517853 26.332994849081317 L45.41044548418774 23.301377801973363 L4.872837926744773 22.940892369146624 L1.0294280444912727 20.537230058838315 L-0.6137615032494068 7.302310696524565 L3.5322285040051202 0.7847348569661841 L5.1567741769375255 -1.2070669941604137" stroke="none" stroke-width="0" fill="#0099cc"></path><path d="M7.8529589313091686 -1.6727887205779552 M4.927681556624358 0.2630578689277172 C17.337967104899462 -1.4692993291216692, 33.358745359473396 -0.8784955867129167, 44.27557517107977 1.2411575727164745 M6.286800973770206 0.3164429161697626 C16.562289353709293 -0.44928470040992685, 28.863555550420838 -0.798322168843307, 44.1558831453736 -0.41261528991162777 M44.58869814020051 0 C47.6083054287778 -0.4388143830001354, 52.76345038930448 1.673732568417054, 52.067213540473304 5.747358671111052 M45.38238755133404 0.1815648265182972 C47.54448405359403 1.2395841216668484, 49.937669169293066 2.9884613974954304, 51.135634183273936 7.4802073002802185 M51.7991059836554 5.1549513253592485 C51.56985751470515 7.957926302921763, 51.312090455231285 12.303790804570287, 49.863542929661016 18.743847784751452 M51.26786961896469 6.204191053611954 C50.19518699043177 9.287939392967552, 51.03877497675727 12.357841901806909, 51.38507378846096 19.162937208906854 M50.772532188841424 18.551502145922736 C51.272713070311866 22.905387638047017, 47.215603206907375 24.167569904405614, 45.813756736781734 23.538851766664525 M52.125939970412574 16.89852636689599 C49.4953648620707 21.73002762878654, 47.01259619448797 23.816073407422742, 45.975794330094296 23.65551855732127 M44.26301277693762 23.577166131515046 C38.603425762525674 26.007706683698643, 27.29017129816256 24.192550343099583, 5.3899080666722705 25.134260586280366 M45.51327003244712 24.74514683038368 C31.7160438996127 25.99526259984103, 18.799331911675736 24.217491305724057, 6.48004131829459 24.956449647251507 M6.183834048640912 24.735336194563647 C0.48091847905920115 23.20011821277811, 1.4928012304008007 21.682250855400838, -1.265050608664751 17.293571289724664 M6.652547969204371 26.02499571331217 C3.528410899918836 23.106765528213224, 1.2653645986691116 24.288600535042264, 1.327823936380446 17.540735166429535 M-0.9321709850334021 17.775955129306865 C0.4810795190141872 15.296249303652312, 0.8054341544298576 14.711198952604605, -0.8411639740301535 5.412007015335699 M-0.19113737842846168 18.439508597890786 C-0.18656570038495734 14.819332443419515, -0.20599791925022093 12.301752176930526, 0.2115227840434445 5.8533614938725576 M0 6.183834048640912 C1.5587503127753735 0.49762599626587, 3.0146231175403413 -1.0786138586699963, 4.817758097034877 -1.8522599749267101 M-1.7695718593895435 7.180609455985015 C1.636198871769011 1.0170171781446156, 1.346363586467069 -0.4344382965937257, 5.431375141908412 -0.3438868844881653" stroke="#0099cc" stroke-width="2" fill="none"></path></g><g transform="translate(123.63119832704388 63.81025904179387) rotate(0 8.462088698140178 8.787553648068751)"><path d="M8.618182187359428 0.860590574506439 C10.276929497222667 0.5678439203567316, 12.002914753857581 0.5175125146740516, 13.396919725541075 1.6453955615256186 C14.790924697224568 2.7732786083771854, 16.502497139826296 5.564220150945797, 16.982212017460387 7.627888855615842 C17.46192689509448 9.691557560285887, 17.226331856273724 12.371089723165268, 16.27520899134563 14.027407789545883 C15.324086126417535 15.683725855926498, 12.960677722576243 16.995496348820154, 11.275474827891827 17.565797253899536 C9.590271933207411 18.136098158978918, 7.770119737074325 18.0611918267804, 6.163991623239134 17.449213220022166 C4.557863509403943 16.83723461326393, 2.5060802552477885 15.501482932354895, 1.6387061448806781 13.893925613350127 C0.7713320345135678 12.28636829434536, 0.8499833713599826 9.852090494932922, 0.9597469610364726 7.803869305993562 C1.0695105507129627 5.755648117054202, 1.0954838500498914 2.9648008807358517, 2.2972876829396185 1.6045984797139692 C3.4990915158293454 0.24439607869208646, 7.061567932751999 -0.22323496404711593, 8.170569958374836 -0.357345100137735 C9.279571983997673 -0.4914552362283541, 8.882251886757693 0.5989502667779895, 8.95129983667664 0.7999376631702546 M9.720742450186743 -1.4312624363275628 C11.163148305807132 -1.169194130593111, 12.758783444581764 0.6947040485254956, 13.742009430566863 2.524683661494837 C14.725235416551962 4.354663274464179, 15.286694202934022 7.756680382416087, 15.620098366097332 9.548615241488486 C15.953502529260643 11.340550100560884, 16.681583763777887 11.75213449653317, 15.742434409546725 13.276292815929231 C14.803285055315563 14.800451135325293, 11.961267967829606 18.345045647450934, 9.985202240710358 18.69356515786486 C8.009136513591109 19.042084668278786, 5.197026050263273 16.292618353864718, 3.8860400468312277 15.367409878412783 C2.5750540433991826 14.442201402960846, 2.6389771522964045 14.876627603738484, 2.119286220118089 13.142314305153242 C1.599595287939773 11.408001006568, 0.4575631514527892 7.004879761174569, 0.7678944537613326 4.961530086901333 C1.078225756069876 2.9181804126280975, 2.7046342033880384 1.9206922647640068, 3.981274033969349 0.8822162595138288 C5.25791386455066 -0.15625974573634926, 7.36190347643211 -1.207445162283875, 8.427733437249195 -1.2693259445997356 C9.49356339806628 -1.331206726915596, 10.134498020909774 0.08953887227012336, 10.376253798871863 0.5109315656186659" stroke="none" stroke-width="0" fill="#ffffff"></path><path d="M9.46224196359206 0.0355179779233481 C11.179261477538926 0.06335074323339802, 12.407083293504638 0.8856353375692065, 13.772701843168097 2.0855890607213423 C15.138320392831556 3.285542783873478, 17.39660167082811 5.452670472304715, 17.65595326157282 7.235240316836163 C17.915304852317526 9.01781016136761, 16.377852475702788 11.269244206353475, 15.328811387636334 12.78100812791003 C14.279770299569881 14.292772049466583, 12.959925907984937 15.659931709177243, 11.361706733174103 16.305823846175485 C9.763487558363268 16.951715983173727, 7.602652709106941 17.298896518255816, 5.739496338771331 16.65636094989948 C3.8763399684357207 16.013825381543143, 1.1071125023754886 13.938010251062039, 0.18276851116044313 12.450610436037458 C-0.7415754800546025 10.963210621012877, -0.3456718275879779 9.342825727386039, 0.19343239148105695 7.7319620597519885 C0.7325366105500918 6.121098392117938, 1.7566094015343203 3.960718349518551, 3.417393825574652 2.785428430233158 C5.078178249614983 1.6101385109477653, 8.778981348860485 0.8833945021145921, 10.158138935723047 0.6802225440396317 C11.537296522585608 0.4770505859646712, 11.833725195907025 1.6002488484439579, 11.692339346750021 1.5663966817833952 M11.400005322987067 -0.8667892835992674 C13.064720136398787 -0.4074169025170984, 14.980267312523871 2.582714140925871, 15.998319886031885 4.260467559117132 C17.016372459539898 5.938220977308394, 17.88087775729064 7.485556918009791, 17.508320764035147 9.199731225548302 C17.135763770779654 10.913905533086812, 15.3181384933529 13.310374456019984, 13.762977926498927 14.545513404348196 C12.207817359644954 15.780652352676407, 10.033941673217775 16.281416285089932, 8.177357362911314 16.61056491551757 C6.320773052604852 16.93971354594521, 4.192720711804267 17.521113286172863, 2.623472064660157 16.520405186914026 C1.054223417516047 15.519697087655187, -1.1994333011110727 12.710001645902533, -1.238134519953345 10.606316319964538 C-1.276835738795617 8.502630994026543, 1.4567113327840744 5.342582299300781, 2.391264751606524 3.898293231286053 C3.325818170428974 2.4540041632713256, 3.036193608607065 2.678729718103919, 4.369185992981354 1.9405819118761727 C5.702178377355643 1.2024341056484262, 9.43691293899571 -0.5008077499297988, 10.389219057852255 -0.5305936060804246 C11.341525176708801 -0.5603794622310504, 9.755367124060882 1.5854694869099528, 10.08302270612063 1.7618667749724182" stroke="#ffff" stroke-width="2" fill="none"></path></g><g stroke-opacity="0.4" fill-opacity="0.4" transform="translate(122.32933852733368 61.532004392298404) rotate(0 9.763948497854017 10.740343347639737)"><path d="M7.724101687993434 0.6694949837362429 C9.600873917946284 -0.18012292104511962, 11.183108101381926 0.3027744476528028, 12.927725001986893 1.102861532595485 C14.67234190259186 1.9029486175381671, 17.29116082210691 3.304609991325834, 18.191803091623235 5.470017493392335 C19.09244536113956 7.635424995458837, 18.76119897642976 11.696161415022134, 18.33157861908485 14.095306544994493 C17.901958261739942 16.494451674966854, 17.134430738141933 18.628190971181137, 15.614080947553777 19.86488827322649 C14.093731156965621 21.101585575271844, 11.199450324387834 21.718518783627182, 9.209479875555912 21.515490357266607 C7.219509426723989 21.312461930906032, 5.066795735651785 20.259795160438234, 3.6742582545622406 18.646717715063033 C2.2817207734726965 17.033640269687833, 1.1554515292023402 14.334333657481901, 0.8542549890186493 11.837025685015401 C0.5530584488349584 9.339717712548902, 0.3848982771828975 5.5409101469462225, 1.8670790134600956 3.662869880264032 C3.3492597497372936 1.7848296135818416, 8.294351291210951 1.1513652587137169, 9.747339406681839 0.5687840849222585 C11.200327522152726 -0.013797088869199836, 10.554867529220378 0.1636604092692823, 10.585007706285422 0.16738283751528193 M10.019122338682788 0.8583711109748258 C12.298954684894094 1.4158039150053225, 16.1327133245103 3.4797887725543575, 17.644408567348705 5.141457701931915 C19.156103810187112 6.803126631309473, 19.12079016980972 8.789967847606574, 19.08929379571323 10.82838468724017 C19.057797421616737 12.866801526873767, 18.762523917428027 15.66910839442148, 17.455430322769764 17.371958739733493 C16.148336728111502 19.07480908504551, 13.253524687076055 20.369375171415943, 11.246732227763665 21.04548675911225 C9.239939768451276 21.72159834680856, 7.184003130903157 22.40375697637934, 5.4146755668954265 21.42862826591135 C3.6453480028876957 20.453499555443358, 1.470683168079355 17.630066437139142, 0.6307668437172804 15.194714496304302 C-0.20914948064479433 12.759362555469462, -0.10578807953281943 9.296716506004815, 0.3751776207229778 6.816516620902307 C0.856143320978775 4.3363167357998, 1.4410512176653456 1.5142321051857464, 3.5165610452520637 0.31351518568925485 C5.592070872838782 -0.8872017338072367, 11.48138994052138 -0.3149254696588833, 12.828236586243287 -0.3877848960766421 C14.175083231965194 -0.46064432249440096, 11.649181930530295 -0.1438093417224208, 11.597640919583508 -0.12364137281729803" stroke="none" stroke-width="0" fill="#ffffff"></path><path d="M9.217133694955757 0.8205033433055036 C11.023775427327704 0.48777170093881805, 13.303625410448218 -0.037131234376788, 15.129634040621063 1.025027113410168 C16.95564267079391 2.087185461197124, 19.716794427680764 4.972668346038644, 20.17318547599283 7.19345343002724 C20.6295765243049 9.414238514015837, 18.801857259709525 12.010513641592022, 17.867980330493467 14.34973761734175 C16.934103401277408 16.688961593091477, 16.43835174618895 20.025990761094473, 14.569923900696477 21.22879728452561 C12.701496055204004 22.431603807956744, 8.9505560914447 22.283661400082956, 6.657413257538626 21.566576757928566 C4.364270423632552 20.849492115774176, 1.9423607801229195 18.76605091881802, 0.8110668972600292 16.926289431599272 C-0.320226985602861 15.086527944380524, -0.485795981204223 12.679870090954559, -0.1303500396387154 10.528007834616075 C0.22509590192679224 8.37614557827759, 1.4152050203598279 5.845079199901063, 2.943742546653075 4.015115893568364 C4.472280072946322 2.185152587235665, 7.7893159748819025 0.1289502894493545, 9.040875118120768 -0.45177200338011936 C10.292434261359633 -1.032494296209593, 10.271889419791652 0.14479233858488438, 10.453097406086266 0.5307821365915206 M10.303793890363073 0.8057367384890277 C12.357871815357454 0.6870011099999402, 15.456474159167366 2.538668610868582, 17.118012082728267 3.671776369332102 C18.779550006289167 4.8048841277956225, 20.183276490997784 5.720452572255187, 20.27302143172848 7.604383289270148 C20.362766372459177 9.488314006285108, 18.927483386952062 12.835416643753822, 17.65648172711245 14.975360671421864 C16.385480067272837 17.115304699089908, 14.355362362631537 19.521116297855496, 12.647011472690808 20.4440474552784 C10.93866058275008 21.366978612701306, 9.29749313173289 21.163110881179236, 7.406376387468083 20.51294761595929 C5.515259643203276 19.862784350739346, 2.3734478759459794 18.67201684009458, 1.300311007101966 16.543067863958722 C0.22717413825795263 14.414118887822863, 0.5640584471427532 10.313471167815061, 0.9675551744040032 7.7392537591441375 C1.3710519016652531 5.165036350473214, 2.413944767740749 2.421989286627438, 3.7212913706694657 1.0977634119331778 C5.028637973598182 -0.2264624627610825, 8.035586785133802 -0.2769524775616115, 8.811634791976305 -0.20610148902142456 C9.587682798818808 -0.1352505004812376, 8.155242780230068 1.4311380030119725, 8.37757941172448 1.5228693431742997" stroke="#0099cc" stroke-width="2" fill="none"></path></g><g transform="translate(128.18770762604163 67.39037349100727) rotate(0 3.2546494992845965 3.9055793991415158)"><path d="M3.254649499284589 0 C3.9171314837552558 -0.049864123264540185, 4.812497194591761 0.3758348943113651, 5.346697871297222 0.9137320032692307 C5.8808985480026825 1.4516291122270961, 6.338760097053665 2.4032764711733208, 6.459853559517352 3.2273826537471932 C6.580947021981039 4.051488836321066, 6.421933374748118 5.1336622842689135, 6.073258646079346 5.858369098712466 C5.724583917410573 6.583075913156019, 5.023099326673868 7.289414466792502, 4.36780518750472 7.575623540408509 C3.712511048335572 7.861832614024516, 2.7967879502336057 7.861832614024517, 2.141493811064458 7.57562354040851 C1.4861996718953099 7.289414466792503, 0.7847150811586039 6.583075913156019, 0.43604035248983175 5.858369098712466 C0.08736562382105961 5.1336622842689135, -0.07164802341186216 4.051488836321066, 0.04944543905182508 3.227382653747193 C0.17053890151551232 2.4032764711733203, 0.6284004505664946 1.4516291122270966, 1.1626011272719552 0.9137320032692311 C1.6968018039774158 0.37583489431136563, 2.905974770615816 0.1392700692143997, 3.2546494992845885 0 C3.603324227953361 -0.1392700692143997, 3.254649499284589 0.013018597997138823, 3.254649499284589 0.07811158798283291 M3.254649499284589 0 C3.9171314837552558 -0.049864123264540185, 4.812497194591761 0.3758348943113651, 5.346697871297222 0.9137320032692307 C5.8808985480026825 1.4516291122270961, 6.338760097053665 2.4032764711733208, 6.459853559517352 3.2273826537471932 C6.580947021981039 4.051488836321066, 6.421933374748118 5.1336622842689135, 6.073258646079346 5.858369098712466 C5.724583917410573 6.583075913156019, 5.023099326673868 7.289414466792502, 4.36780518750472 7.575623540408509 C3.712511048335572 7.861832614024516, 2.7967879502336057 7.861832614024517, 2.141493811064458 7.57562354040851 C1.4861996718953099 7.289414466792503, 0.7847150811586039 6.583075913156019, 0.43604035248983175 5.858369098712466 C0.08736562382105961 5.1336622842689135, -0.07164802341186216 4.051488836321066, 0.04944543905182508 3.227382653747193 C0.17053890151551232 2.4032764711733203, 0.6284004505664946 1.4516291122270966, 1.1626011272719552 0.9137320032692311 C1.6968018039774158 0.37583489431136563, 2.905974770615816 0.1392700692143997, 3.2546494992845885 0 C3.603324227953361 -0.1392700692143997, 3.254649499284589 0.013018597997138823, 3.254649499284589 0.07811158798283291" stroke="none" stroke-width="0" fill="#004666"></path><path d="M3.254649499284589 0 C3.9171314837552558 -0.049864123264540185, 4.812497194591761 0.3758348943113651, 5.346697871297222 0.9137320032692307 C5.8808985480026825 1.4516291122270961, 6.338760097053665 2.4032764711733208, 6.459853559517352 3.2273826537471932 C6.580947021981039 4.051488836321066, 6.421933374748118 5.1336622842689135, 6.073258646079346 5.858369098712466 C5.724583917410573 6.583075913156019, 5.023099326673868 7.289414466792502, 4.36780518750472 7.575623540408509 C3.712511048335572 7.861832614024516, 2.7967879502336057 7.861832614024517, 2.141493811064458 7.57562354040851 C1.4861996718953099 7.289414466792503, 0.7847150811586039 6.583075913156019, 0.43604035248983175 5.858369098712466 C0.08736562382105961 5.1336622842689135, -0.07164802341186216 4.051488836321066, 0.04944543905182508 3.227382653747193 C0.17053890151551232 2.4032764711733203, 0.6284004505664946 1.4516291122270966, 1.1626011272719552 0.9137320032692311 C1.6968018039774158 0.37583489431136563, 2.905974770615816 0.1392700692143997, 3.2546494992845885 0 C3.603324227953361 -0.1392700692143997, 3.254649499284589 0.013018597997138823, 3.254649499284589 0.07811158798283291 M3.254649499284589 0 C3.9171314837552558 -0.049864123264540185, 4.812497194591761 0.3758348943113651, 5.346697871297222 0.9137320032692307 C5.8808985480026825 1.4516291122270961, 6.338760097053665 2.4032764711733208, 6.459853559517352 3.2273826537471932 C6.580947021981039 4.051488836321066, 6.421933374748118 5.1336622842689135, 6.073258646079346 5.858369098712466 C5.724583917410573 6.583075913156019, 5.023099326673868 7.289414466792502, 4.36780518750472 7.575623540408509 C3.712511048335572 7.861832614024516, 2.7967879502336057 7.861832614024517, 2.141493811064458 7.57562354040851 C1.4861996718953099 7.289414466792503, 0.7847150811586039 6.583075913156019, 0.43604035248983175 5.858369098712466 C0.08736562382105961 5.1336622842689135, -0.07164802341186216 4.051488836321066, 0.04944543905182508 3.227382653747193 C0.17053890151551232 2.4032764711733203, 0.6284004505664946 1.4516291122270966, 1.1626011272719552 0.9137320032692311 C1.6968018039774158 0.37583489431136563, 2.905974770615816 0.1392700692143997, 3.2546494992845885 0 C3.603324227953361 -0.1392700692143997, 3.254649499284589 0.013018597997138823, 3.254649499284589 0.07811158798283291" stroke="transparent" stroke-width="2" fill="none"></path></g><g><g stroke-opacity="0.8" fill-opacity="0.8" transform="translate(94.36337258139838 203.19111774621615) rotate(0 -38.4694240601043 -75.66217004906866)"><path d="M-16.191828612845455 -43.54258582088139 C-17.685705434487986 -43.636828557076, -22.017337060483975 -41.976625519883974, -25.36885837061582 -42.14313453226521 C-28.720379680747662 -42.30964354464644, -33.530655424250796 -44.701157117297356, -36.30095647363651 -44.54163989516881 C-39.071257523022226 -44.38212267304026, -39.56920273672242 -39.828084202033224, -41.99066466693009 -41.18603119949392 C-44.41212659713776 -42.54397819695461, -49.19383885578743 -48.49841778249158, -50.82972805488253 -52.689321879932955 C-52.465617253977626 -56.88022597737433, -52.73750592651847 -61.25702836996647, -51.805999861500645 -66.33145578414216 C-50.87449379648282 -71.40588319831785, -45.94716387820135 -78.92356833728857, -45.240691664775554 -83.13588636498712 C-44.534219451349756 -87.34820439268566, -46.486629671812395 -88.37518982943416, -47.567166580945866 -91.60536395033338 C-48.64770349007934 -94.8355380712326, -49.52727096517343 -99.38805175868049, -51.72391311957636 -102.51693109038241 C-53.92055527397929 -105.64581042208434, -58.71291001964228 -108.69734748904119, -60.74701950736344 -110.37863994054496" stroke="#0099cc" stroke-width="4.5" fill="none" stroke-dasharray="12 8"></path></g></g><g><g stroke-opacity="0.8" fill-opacity="0.8" transform="translate(48.06225134320539 76.94421141248858) rotate(0 -25.714992175572434 11.153021398377405)"><path d="M-17.038825330275266 -2.2116764467209578 C-16.57672016907693 -0.685812177544143, -14.62014539395356 4.269350595855679, -14.228240473715273 7.815702945901119 C-13.836335553476985 11.36205529594656, -14.8281558256349 16.811441456716093, -14.687395808845535 19.06643765355168 C-14.54663579205617 21.32143385038727, -13.183471003470302 21.024773757645978, -13.383680372979086 21.345680126914644 C-13.58388974248787 21.66658649618331, -13.183370322581949 20.46320268307022, -15.888652025898233 20.991875869163675 C-18.593933729214516 21.520549055257128, -25.9197707066589 24.62389773922016, -29.61537059287679 24.51771924347537 C-33.31097047909468 24.41154074773058, -36.149585027625086 21.46756015177483, -38.062251343205574 20.354804894694947" stroke="#0099cc" stroke-width="4.5" fill="none" stroke-dasharray="12 8"></path></g></g><g><g stroke-opacity="0.8" fill-opacity="0.8" transform="translate(224.5698385027149 157.694331315809) rotate(0 42.868467138468304 -42.13330665162903)"><path d="M1.9031832534819841 0.558828828856349 C3.117040017360676 -0.27289617781128594, 5.548525806943336 -5.102219654676475, 7.051191106746962 -7.0235313873312535 C8.553856406550587 -8.944843119986032, 8.611931916948063 -8.30078116103833, 10.91917505230374 -10.969041567072324 C13.226418187659416 -13.637301973106318, 18.557283263627884 -16.35227902962524, 20.894649918881022 -23.03309382353522 C23.23201657413416 -29.713908617445203, 22.983434639025305 -43.19552942990215, 24.943374983822565 -51.05393033053221 C26.903315328619826 -58.91233123116227, 31.55281585959985 -66.8194747882819, 32.65429198766459 -70.18349922731556 C33.75576811572934 -73.54752366634924, 30.77548824970632 -69.9832691014686, 31.55223175221102 -71.23807696473423 C32.32897525471572 -72.49288482799987, 34.239206600780676 -75.52479107780158, 37.3147530026928 -77.7123464069094 C40.39029940460492 -79.89990173601723, 45.84443985938421 -83.35099629281223, 50.005510163683745 -84.36340893938119 C54.16658046798328 -85.37582158595015, 57.73801436141304 -84.52810235329018, 62.28117482849002 -83.78682228632317 C66.82433529556701 -83.04554221935616, 73.67237693365156 -80.85735030741255, 77.26447296614563 -79.91572853757911 C80.8565689986397 -78.97410676774568, 82.4152711921212 -78.66995204135463, 83.83375102345445 -78.1370916673226" stroke="#0099cc" stroke-width="4.5" fill="none" stroke-dasharray="12 8"></path></g></g><g><g stroke-opacity="0.8" fill-opacity="0.8" transform="translate(336.9878559483095 74.88726814188067) rotate(0 -19.627239965358967 5.23304313914241)"><path d="M-10.413345420406031 -3.9296842273642203 C-11.97725148875041 -4.190689517459901, -17.003874328887523 -5.225691974540876, -19.059874694032025 -5.451332859322429 C-21.115875059176528 -5.676973744103982, -21.212894569665853 -5.173590914447995, -22.74934761127305 -5.283529536053538 C-24.285800652880244 -5.393468157659082, -27.365144010929768 -8.073879174431056, -28.278592943675207 -6.110964588955692 C-29.192041876420646 -4.1480500034803285, -28.872478147806753 3.0628175766358416, -28.23004120774567 6.493957976798644 C-27.58760426768459 9.925098376961445, -26.254150398728402 12.6774127035724, -24.423971303308722 14.475877812021121 C-22.59379220788904 16.27434292046984, -17.897397738828694 16.907190386329916, -17.248966635227582 17.284748627490963" stroke="#0099cc" stroke-width="4.5" fill="none" stroke-dasharray="12 8"></path></g></g><g stroke-opacity="0.8" fill-opacity="0.8" transform="translate(147.52330874817062 36.0778119637971) rotate(378.6057438771808 30.573081464978486 17.98416556763459)"><path d="M-3.621566403657198 -0.631870936602354 C17.573293405666025 3.094411227594037, 27.330542588768544 -2.6281817222732116, 63.96187420097486 -2.8012367002665997 M0.05275496281683445 -1.4651898685842752 C16.347022290966883 -1.106197548253111, 29.064959434180405 1.476237880843111, 61.89738282283143 -1.8645510617643595 M64.07181091514722 -0.046106886118650436 C59.08096001712099 10.747893233646721, 62.611610752022415 26.039867749164046, 60.30402190891401 32.9791043656129 M60.38409384806947 -1.8366517964750528 C60.715404150446126 11.7590368974164, 63.04151612277813 29.029291860228753, 59.76788630803422 37.1775142973471 M64.2679930469145 33.82990678718272 C41.45182575720631 34.59070100879268, 18.279834950652415 34.9193699607809, -2.0620851404964924 33.05651422908488 M62.773625043233196 35.19200108705047 C38.93975171265186 34.90417375712943, 11.357795267446505 35.875834192329165, 1.1898072008043528 37.151721162180934 M3.917053233832121 36.04498144557658 C4.601261461814763 24.918374197244432, -3.2041397442017776 16.649360485289236, -0.7260790951550007 -0.5640022270381451 M-0.6238052602857351 36.264611882548365 C2.1136195553804162 26.8410399123079, 0.4985656036401514 16.63683401567583, 0.5575831774622202 -0.9024407211691141" stroke="#004666" stroke-width="4" fill="none"></path></g><g stroke-opacity="0.7" fill-opacity="0.7" transform="translate(150.76894403606093 37.02283103038826) rotate(378.6057438771808 26.37677616586393 17.98416556763459)"><path d="M-0.8259024564176798 0.8625262621790171 L51.75875397506051 0.0885253194719553 L53.959248562481925 36.13108587397221 L0.3339919503778219 34.09376782311085" stroke="none" stroke-width="0" fill="#004666"></path><path d="M-1.5629336591809988 -0.3706623259931803 C14.88841683224247 0.09073178365755474, 31.477975712948165 -0.054656044692512395, 51.95655606048994 0.1929910834878683 M0.7015797821804881 -0.04233436565846205 C15.967837245578162 0.022517495364811402, 30.92901334148316 1.0699461927124525, 53.133211450789794 0.5253362478688359 M51.51341173904829 1.1734507735818624 C52.44394555391324 13.666951428630382, 53.2937487036134 27.12536259088105, 51.29054335611753 35.0620694583464 M53.20815046331726 -0.09359003882855177 C53.03642876051581 14.847061110223823, 52.975743513332965 27.613743944151686, 53.32287816903435 35.895823765936825 M51.12863377588682 35.52472214160446 C35.49476661504853 35.69826795927267, 21.354698663804975 35.25350650421362, -0.8609457369893789 37.25666092095855 M53.000974225018844 35.270542193594906 C33.406624557850314 37.045669411236794, 15.910452800532859 35.8483452246733, -0.12506067473441362 35.164501030388806 M-1.8768744822591543 37.36019800363067 C-1.2883135151637082 25.285248019909293, 0.674156718276691 11.755164598077563, 1.9843521360307932 -1.3380416575819254 M0.5402256278321147 35.199612219277356 C-0.48014181111601756 27.024077835745025, 1.1210095658466441 16.506667422244437, -0.3263336690142751 -0.4525369880720973" stroke="transparent" stroke-width="4" fill="none"></path></g><g transform="translate(130.28933665955537 9.636944590577514) rotate(378.6057438771808 51.527359224839074 24.918968805454824)"><path d="M52.242617417126894 -0.6146578676998615 L104.9047867096625 25.64497769996524 L49.71855502203107 50.207406072632104 L2.612115789204836 26.44126070663333" stroke="none" stroke-width="0" fill="#ffffff" fill-rule="evenodd"></path><path d="M50.01040328666568 0.1770506389439106 C67.21091753089894 6.253806652516467, 78.47350965364092 8.547828080613508, 104.96343609314782 24.70936791971326 M51.439778769388795 1.560977166518569 C73.25872297412215 10.744222376485776, 92.1720899304275 17.68085622367398, 102.06541011665387 26.097456580027938 M104.61042114716393 24.324910331517458 C86.47201161016133 35.236609344206784, 72.47965739306163 38.03074886336689, 48.878100764006376 48.63991696269873 M103.89931962822003 26.74348939023912 C84.90786451698551 32.57616898509548, 65.71488298852213 44.74933251240428, 50.97962578572333 51.354240261704355 M52.775604616850615 49.0483976069248 C32.76268457871252 38.3254077280021, 10.009395078461111 30.98010911732974, -2.8999106772243977 27.411699701100588 M50.89994581975043 49.1226027838296 C35.52006361802595 44.53820683431183, 23.136633742428593 38.783748845374056, -1.3647240158170462 24.407032495364547 M-2.1532552130520344 21.217610765248537 C14.491564069408923 13.927788434233516, 32.06950987735763 8.026593339778483, 52.16928781196475 3.6919713504612446 M0.5848776344209909 25.628291135653853 C15.212152635958047 18.50916316198185, 30.218807735573503 8.749781950153407, 53.77897282876074 0.7974171098321676" stroke="#004666" stroke-width="4" fill="none"></path></g><g stroke-opacity="0.5" fill-opacity="0.5" transform="translate(128.95771888390846 8.719719523695858) rotate(378.6057438771808 51.527359224839074 24.49661340197281)"><path d="M48.18172765895724 0.17582552507519722 L102.32863935452325 24.435997772961855 L51.04849864169955 47.07116028304585 L3.9269696585834026 23.75238947942853" stroke="none" stroke-width="0" fill="#004666" fill-rule="evenodd"></path><path d="M51.88542966917157 -2.4244394190609455 C67.43191548886793 3.639261808743207, 79.95943869572301 9.831224981726585, 101.8452757633887 27.992090117186308 M50.02230698429048 -1.2195613142102957 C64.40024148966691 6.844347759449542, 78.3060626823556 14.41068468971333, 104.53372808356208 26.274037206545472 M100.25348174941165 22.503241430968046 C88.74968884220159 29.349437919514386, 76.9967753594745 34.90496970720303, 55.63970713689923 45.29643206681498 M101.19016738791389 25.25569757260382 C86.66483435728425 30.607739978465908, 74.00660052263504 39.78190142002149, 51.18725008331239 48.74199837643095 M49.01077323034406 52.02782874192484 C36.76887178327975 37.75761022304536, 13.897889241018262 28.41949457935388, -2.0377352945506573 21.479596745222807 M53.20918316207826 49.473643483700236 C30.717052488615522 40.28736646345766, 15.085583855425725 29.674873746209688, 0.05914676748216152 24.073613131418824 M-2.911816906183958 28.686121594160795 C8.352598300855608 16.85796491811052, 26.21866425862536 13.03481524493545, 55.54448490217328 -0.16928719356656075 M1.1833900269120932 24.41998907364905 C8.91006305674091 20.01514562351629, 23.41525871353224 13.997276225052772, 53.99356443248689 -0.6512794252485037" stroke="transparent" stroke-width="4" fill="none"></path></g><g><g transform="translate(180.67439576797642 42.25699613928646) rotate(378.6057438771808 20.216013659782448 15.91561167426471)"><path d="M0.05548926852643499 -0.28280815349644517 C3.567680316964952 -0.1517188959579178, 15.252780363225714 -1.0141708843550676, 20.510608146266147 -0.2975202884525061 C25.76843592930658 0.4191303074500554, 28.539606584373523 1.6218773357992151, 31.60245596676903 4.017095421918924 C34.665305349164534 6.412313508038633, 37.41370697228894 9.406785432040355, 38.88770444063917 14.073788228265748 C40.361701908989396 18.74079102449114, 40.186629804001214 28.74402476736864, 40.4464407768704 32.019112199271284 C40.70625174973959 35.294199631173925, 40.30181171892554 33.24157166513052, 40.4465702778543 33.724312819681614 M-1.3745175948366524 -1.2641095530775794 C2.123571966203717 -1.3959184915210314, 14.731739428417164 -2.5011350279814595, 20.13074896533142 -1.9200431886687874 C25.529758502245677 -1.3389513493561154, 27.923429594810717 -0.6375858505765817, 31.019539626648893 2.2224414827984527 C34.11564965848707 5.082468816173487, 37.31623742620185 10.25432626230236, 38.70740915636048 15.240120811581418 C40.0985808865191 20.225915360860476, 38.85004738126045 29.27389664826503, 39.366570007600636 32.137208778472804 C39.88309263394082 35.00052090868058, 41.307374468542335 32.12105841776725, 41.80654491440156 32.419993592828064" stroke="#ef6f6c" stroke-width="4" fill="none"></path></g></g><g><g transform="translate(208.37571356696617 105.38873633856565) rotate(25.81833625625231 8.335914115334617 -15.503630737577623)"><path d="M-0.12689311243593693 -7.75263586974908 C0.18123800085401498 -7.712574908502589, 1.7288696671537738 -6.725739910969923, 2.756240803460238 -8.136833593614588 C3.7836119397667023 -9.547927276259252, 5.607431866444793 -14.059862127957977, 6.0373337054028475 -16.219197965617067 C6.467235544360902 -18.378533803276156, 5.447464011528787 -20.021886066725102, 5.335651837208566 -21.09284861956912 C5.223839662888345 -22.16381117241314, 5.162118303515789 -22.27557404308209, 5.366460659481522 -22.64497328268117 C5.570803015447255 -23.01437252228025, 5.0252975526811445 -25.439582186144857, 6.561705973002965 -23.309244057163596 C8.098114393324787 -21.178905928182335, 12.994403786087652 -11.784917305350014, 14.584911181412448 -9.862944508793602 C16.175418576737243 -7.94097171223719, 15.623497804482984 -11.699548781457404, 16.104750344951736 -11.777407277825127 C16.586002885420488 -11.85526577419285, 17.54067742605983 -10.44520078152577, 17.47242642422496 -10.330095486999937 M-1.6526507258042693 -9.038390772521685 C-1.0264208492868545 -8.772930058419893, 3.902487852487682 -6.022315657915961, 5.14132906702405 -7.041263104856203 C6.380170281560418 -8.060210551796445, 6.219551034301666 -12.895510508885717, 5.780396561413941 -15.152075454163139 C5.341242088526216 -17.40864039944056, 2.79446824851751 -19.31036238406375, 2.506402229697701 -20.58065277652073 C2.218336210877892 -21.850943168977707, 3.2318040497608744 -22.68491704652647, 4.052000448495086 -22.77381780890501 C4.872196847229298 -22.862718571283555, 5.61917828932273 -23.11254376015541, 7.427580622102971 -21.11405735079199 C9.235982954883212 -19.115570941428572, 13.0862647227815 -12.795642156652814, 14.90241444517653 -10.7828993527245 C16.71856416757156 -8.770156548796187, 18.124200566900477 -8.986504126544157, 18.324478956473158 -9.037600527222105 C18.52475734604584 -9.088696927900054, 16.519214743387984 -10.710356034153797, 16.10408478261261 -11.089477756792196" stroke="#ef6f6c" stroke-width="4" fill="none"></path></g></g><g><g transform="translate(213.05434360421168 83.64944810385168) rotate(25.81833625625231 1.3287146360023598 6.7808432270448975)"><path d="M-0.16108773685991773 0.13385403491556636 C0.46473403499937016 1.3459758725298634, 3.264415935497282 5.282988537498381, 3.8469626371661403 7.349693154339905 C4.429509338834999 9.416397771181428, 3.2832552490633407 11.515498646912954, 3.334192473153231 12.534081735964707 C3.3851296972431215 13.552664825016459, 4.140553710618523 13.009090945476284, 4.152585981705483 13.46119168865042 M-1.70479752805084 -0.8414765420928598 C-1.204089397215188 0.01007944359463353, 2.4363715204927305 3.101031852797236, 3.1446798634255506 5.537921922338421 C3.8529882063583707 7.974811991879605, 2.342128040107755 12.353995151823245, 2.54505252954608 13.779863875154248 C2.747977018984405 15.205732598485252, 3.925342235238758 13.705962888838343, 4.362226800055501 14.093134262324444" stroke="#ef6f6c" stroke-width="4" fill="none"></path></g></g><g><g transform="translate(210.1713515149513 86.30731924027259) rotate(378.6057438771808 4.9573353907976525 4.265329098672737)"><path d="M-1.1052888359874486 1.002598049864173 C0.5921835528142143 2.1870601613355865, 8.096881870094382 4.917877523458805, 9.7022838701021 5.913387296890135 C11.307685870109818 6.908897070321465, 8.42789434087389 6.560347594414021, 8.527123164058857 6.975656690452154 M0.5152957957796751 0.48335808070376496 C2.132885748186647 1.9027329840233613, 7.218955224424296 5.76076438273048, 8.969732528058074 7.0075554897275225 C10.720509831691853 8.254346596724565, 10.669478243914627 8.086931273825583, 11.019959617582344 7.964104722686018" stroke="#ef6f6c" stroke-width="4" fill="none"></path></g></g><g><g stroke-opacity="0.3" fill-opacity="0.3" transform="translate(181.71425857587428 17.315899813804208) rotate(25.81833625625231 3.104764339122312 19.48063227377952)"><path d="M0.3779440786689521 -1.0613785710185766 C1.1422810745671685 5.451276466970974, 4.155588843144623 33.2366776100066, 4.90797401103991 40.02264311857721 M-0.8827740093693137 0.995793733857572 C0.21743325129750324 7.121999416960115, 5.73672727051392 32.389705153320406, 7.092302687613842 38.51219001885703" stroke="#ef6f6c" stroke-width="4" fill="none"></path></g></g><g><g stroke-opacity="0.3" fill-opacity="0.3" transform="translate(228.00670496473504 31.312937639793745) rotate(25.81833625625231 -45.241537676196 5.168083574310458)"><path d="M-0.45636186338961127 0.5564923200756311 C-15.772938426963805 1.8743622766263175, -77.05236410465001 7.458155671421134, -91.98798478138337 9.097639321209126 M1.5049094289913776 -0.19695315722376106 C-13.418373993456182 1.8141321230135252, -74.38588849946765 9.062093428622628, -89.67461950034539 10.533120305844777" stroke="#ef6f6c" stroke-width="4" fill="none"></path></g></g><g transform="translate(162.13899561059725 61.39476013629428) rotate(0 8.462088698140178 9.4727946119242)"><path d="M8.46208869814018 0 C10.184541857763964 -0.12094302788786433, 12.512492705938948 0.9115694236271898, 13.901414465373186 2.216212938652254 C15.290336224807424 3.5208564536773186, 16.480776252340014 5.829031260278064, 16.79561925474561 7.827861090150386 C17.110462257151205 9.82669092002271, 16.6970267743456 12.451450465082965, 15.790472479806764 14.20919191788619 C14.88391818526793 15.966933370689416, 13.060058249352442 17.680123492122483, 11.356293487512607 18.37430980696974 C9.652528725672772 19.068496121817, 7.27164867060759 19.068496121817002, 5.5678839087677545 18.374309806969745 C3.8641191469279192 17.680123492122487, 2.04025921101243 15.966933370689418, 1.1337049164735955 14.20919191788619 C0.2271506219347611 12.451450465082964, -0.18628486087084778 9.826690920022708, 0.12855814153474832 7.827861090150385 C0.4434011439403444 5.829031260278063, 1.6338411714729337 3.520856453677319, 3.022762930907172 2.216212938652255 C4.41168469034141 0.911569423627191, 7.555534403601343 0.33779284106896207, 8.462088698140178 0 C9.368642992679012 -0.33779284106896207, 8.46208869814018 0.03157598203974743, 8.46208869814018 0.1894558922384828 M8.46208869814018 0 C10.184541857763964 -0.12094302788786433, 12.512492705938948 0.9115694236271898, 13.901414465373186 2.216212938652254 C15.290336224807424 3.5208564536773186, 16.480776252340014 5.829031260278064, 16.79561925474561 7.827861090150386 C17.110462257151205 9.82669092002271, 16.6970267743456 12.451450465082965, 15.790472479806764 14.20919191788619 C14.88391818526793 15.966933370689416, 13.060058249352442 17.680123492122483, 11.356293487512607 18.37430980696974 C9.652528725672772 19.068496121817, 7.27164867060759 19.068496121817002, 5.5678839087677545 18.374309806969745 C3.8641191469279192 17.680123492122487, 2.04025921101243 15.966933370689418, 1.1337049164735955 14.20919191788619 C0.2271506219347611 12.451450465082964, -0.18628486087084778 9.826690920022708, 0.12855814153474832 7.827861090150385 C0.4434011439403444 5.829031260278063, 1.6338411714729337 3.520856453677319, 3.022762930907172 2.216212938652255 C4.41168469034141 0.911569423627191, 7.555534403601343 0.33779284106896207, 8.462088698140178 0 C9.368642992679012 -0.33779284106896207, 8.46208869814018 0.03157598203974743, 8.46208869814018 0.1894558922384828" stroke="none" stroke-width="0" fill="#ffffff"></path><path d="M8.46208869814018 0 C10.184541857763964 -0.12094302788786433, 12.512492705938948 0.9115694236271898, 13.901414465373186 2.216212938652254 C15.290336224807424 3.5208564536773186, 16.480776252340014 5.829031260278064, 16.79561925474561 7.827861090150386 C17.110462257151205 9.82669092002271, 16.6970267743456 12.451450465082965, 15.790472479806764 14.20919191788619 C14.88391818526793 15.966933370689416, 13.060058249352442 17.680123492122483, 11.356293487512607 18.37430980696974 C9.652528725672772 19.068496121817, 7.27164867060759 19.068496121817002, 5.5678839087677545 18.374309806969745 C3.8641191469279192 17.680123492122487, 2.04025921101243 15.966933370689418, 1.1337049164735955 14.20919191788619 C0.2271506219347611 12.451450465082964, -0.18628486087084778 9.826690920022708, 0.12855814153474832 7.827861090150385 C0.4434011439403444 5.829031260278063, 1.6338411714729337 3.520856453677319, 3.022762930907172 2.216212938652255 C4.41168469034141 0.911569423627191, 7.555534403601343 0.33779284106896207, 8.462088698140178 0 C9.368642992679012 -0.33779284106896207, 8.46208869814018 0.03157598203974743, 8.46208869814018 0.1894558922384828 M8.46208869814018 0 C10.184541857763964 -0.12094302788786433, 12.512492705938948 0.9115694236271898, 13.901414465373186 2.216212938652254 C15.290336224807424 3.5208564536773186, 16.480776252340014 5.829031260278064, 16.79561925474561 7.827861090150386 C17.110462257151205 9.82669092002271, 16.6970267743456 12.451450465082965, 15.790472479806764 14.20919191788619 C14.88391818526793 15.966933370689416, 13.060058249352442 17.680123492122483, 11.356293487512607 18.37430980696974 C9.652528725672772 19.068496121817, 7.27164867060759 19.068496121817002, 5.5678839087677545 18.374309806969745 C3.8641191469279192 17.680123492122487, 2.04025921101243 15.966933370689418, 1.1337049164735955 14.20919191788619 C0.2271506219347611 12.451450465082964, -0.18628486087084778 9.826690920022708, 0.12855814153474832 7.827861090150385 C0.4434011439403444 5.829031260278063, 1.6338411714729337 3.520856453677319, 3.022762930907172 2.216212938652255 C4.41168469034141 0.911569423627191, 7.555534403601343 0.33779284106896207, 8.462088698140178 0 C9.368642992679012 -0.33779284106896207, 8.46208869814018 0.03157598203974743, 8.46208869814018 0.1894558922384828" stroke="#ffff" stroke-width="2" fill="none"></path></g><g stroke-opacity="0.4" fill-opacity="0.4" transform="translate(161.48806571073737 59.836057514656204) rotate(0 9.763948497854017 10.740343347639737)"><path d="M10.529130534531914 0.5874676170195805 C12.510145909982452 0.6839394902657534, 14.871066874078277 1.6520051422071804, 16.51925895331937 3.313955522691251 C18.16745103256046 4.975905903175322, 20.20931427484941 8.331764077975336, 20.41828300997846 10.559169899924004 C20.627251745107507 12.786575721872673, 19.305716707311433 14.937537728973705, 17.773071364093667 16.67839045438326 C16.2404260208759 18.41924317979281, 13.28417977216757 20.270791227401354, 11.222410950671861 21.004286252381327 C9.160642129176152 21.7377812773613, 7.098755138673266 22.040218784686832, 5.402458435119408 21.079360604263094 C3.70616173156555 20.118502423839356, 1.8059964943004982 17.39786630343436, 1.0446307293487127 15.239137169838894 C0.2832649643969273 13.08040803624343, 0.38998421418847046 10.46327794935384, 0.8342638454086959 8.126985802690303 C1.2785434766289214 5.790693656026766, 2.108286680060136 2.414255925714073, 3.7103085166700653 1.2213842898576743 C5.312330353279995 0.02851265400127523, 9.282338040193304 1.171546051892756, 10.446394865068271 0.969755987551908 C11.610451689943238 0.7679659232110598, 10.533979111719875 0.05632333026082185, 10.694649465919865 0.01064390381258562 M8.781590214706213 -0.27524514683047485 C10.917986239848439 -1.1900016954692512, 12.188960932559091 -1.4546429965436352, 14.015684608536924 -0.33156371368983173 C15.842408284514757 0.7915155691639717, 18.64279304754443 4.051380405701474, 19.74193227057321 6.463230550292346 C20.841071493601987 8.875080694883218, 21.42829166158135 11.75371896058517, 20.610519946709587 14.139537153855397 C19.792748231837823 16.525355347125625, 16.633207774093496 19.787419670083814, 14.835301981342628 20.77813970991371 C13.03739618859176 21.768859749743605, 11.82194386112286 20.27137435394162, 9.82308519020438 20.08385739283476 C7.824226519285899 19.896340431727896, 4.457049489488237 21.279148186299338, 2.842149955831747 19.653037943272533 C1.2272504221752574 18.02692770024573, 0.08562920137025895 13.027251791218793, 0.13368798826544115 10.327195934673934 C0.18174677516062335 7.6271400781290755, 1.9199292413809326 4.944184512010175, 3.1305026772028404 3.452702804003385 C4.341076113024748 1.9612210959965954, 6.589833852701087 1.9038199576621095, 7.3971286031968875 1.3783056866331957 C8.204423353692688 0.8527914156042821, 8.030497325564204 0.3318994214448325, 7.974271180177643 0.29961717782990327" stroke="none" stroke-width="0" fill="#ffffff"></path><path d="M7.408019735444155 1.0693298557833835 C9.294866188857245 0.7354953174964785, 13.596314942326421 0.7767642017990737, 15.38044885537317 1.8331832350239488 C17.164582768419923 2.889602268248824, 17.59631681153698 5.3856874455019, 18.112823213724656 7.407844055132633 C18.629329615912333 9.430000664763366, 19.23375144787245 11.73291145512897, 18.479487268499227 13.966122892808349 C17.725223089126004 16.199334330487726, 15.324211774520132 19.526155419728916, 13.58723813748531 20.807112681208906 C11.850264500450487 22.088069942688897, 9.926070218188556 22.19613630129909, 8.057645446290293 21.6518664616883 C6.18922067439203 21.10759662207751, 3.59258848568044 19.354934165898733, 2.3766895060957323 17.541493643544168 C1.1607905265110245 15.728053121189603, 0.62076777337394 13.07062810581553, 0.7622515687820464 10.771223327560909 C0.9037353641901528 8.471818549306288, 1.7935197746188047 5.70174486615462, 3.2255922785443705 3.745064974016442 C4.657664782469936 1.7883850818782643, 8.096813924443135 -0.4728552938548661, 9.35468659233544 -0.9688560252681562 C10.612559260227746 -1.4648567566814463, 10.871044994664423 0.45068013808683133, 10.772828285898209 0.7690605855367014 M11.96843592250351 0.10449529486221643 C13.768842350576428 0.8041334471745492, 15.672535369978485 3.9282799581061303, 16.97909658002424 6.280193842967416 C18.285657790069997 8.6321077278287, 20.063680545912398 12.044421814976834, 19.80780318277804 14.215978604029928 C19.551925819643685 16.387535393083024, 17.127322128410285 18.130312123508816, 15.4438324012181 19.30953457728598 C13.760342674025912 20.488757031063145, 11.77738646472731 21.41471301074513, 9.70686481962492 21.291313326692922 C7.63634317452253 21.167913642640716, 4.545141268348212 19.83180787290066, 3.020702530603759 18.56913647297274 C1.496263792859306 17.30646507304482, 0.8271231306720497 15.834551476395472, 0.5602323931582021 13.715284927125396 C0.2933416556443545 11.59601837785532, 0.43976138730478365 8.103026997715878, 1.4193581055206739 5.853537177352279 C2.398954823736564 3.6040473569886804, 4.6716281177929195 1.2696507620976172, 6.437812702453543 0.21834600494380396 C8.203997287114168 -0.8329587522100093, 10.640709172743309 -0.48371916702082185, 12.016465613484419 -0.4542913655706009 C13.39222205422553 -0.42486356412037996, 14.493229521958419 0.11116232713190283, 14.692351346900201 0.39491281364512965" stroke="#0099cc" stroke-width="2" fill="none"></path></g><g transform="translate(167.99736470931293 66.63651039915749) rotate(0 3.2546494992845965 3.9055793991415158)"><path d="M3.254649499284589 0 C3.9171314837552558 -0.049864123264540185, 4.812497194591761 0.3758348943113651, 5.346697871297222 0.9137320032692307 C5.8808985480026825 1.4516291122270961, 6.338760097053665 2.4032764711733208, 6.459853559517352 3.2273826537471932 C6.580947021981039 4.051488836321066, 6.421933374748118 5.1336622842689135, 6.073258646079346 5.858369098712466 C5.724583917410573 6.583075913156019, 5.023099326673868 7.289414466792502, 4.36780518750472 7.575623540408509 C3.712511048335572 7.861832614024516, 2.7967879502336057 7.861832614024517, 2.141493811064458 7.57562354040851 C1.4861996718953099 7.289414466792503, 0.7847150811586039 6.583075913156019, 0.43604035248983175 5.858369098712466 C0.08736562382105961 5.1336622842689135, -0.07164802341186216 4.051488836321066, 0.04944543905182508 3.227382653747193 C0.17053890151551232 2.4032764711733203, 0.6284004505664946 1.4516291122270966, 1.1626011272719552 0.9137320032692311 C1.6968018039774158 0.37583489431136563, 2.905974770615816 0.1392700692143997, 3.2546494992845885 0 C3.603324227953361 -0.1392700692143997, 3.254649499284589 0.013018597997138823, 3.254649499284589 0.07811158798283291 M3.254649499284589 0 C3.9171314837552558 -0.049864123264540185, 4.812497194591761 0.3758348943113651, 5.346697871297222 0.9137320032692307 C5.8808985480026825 1.4516291122270961, 6.338760097053665 2.4032764711733208, 6.459853559517352 3.2273826537471932 C6.580947021981039 4.051488836321066, 6.421933374748118 5.1336622842689135, 6.073258646079346 5.858369098712466 C5.724583917410573 6.583075913156019, 5.023099326673868 7.289414466792502, 4.36780518750472 7.575623540408509 C3.712511048335572 7.861832614024516, 2.7967879502336057 7.861832614024517, 2.141493811064458 7.57562354040851 C1.4861996718953099 7.289414466792503, 0.7847150811586039 6.583075913156019, 0.43604035248983175 5.858369098712466 C0.08736562382105961 5.1336622842689135, -0.07164802341186216 4.051488836321066, 0.04944543905182508 3.227382653747193 C0.17053890151551232 2.4032764711733203, 0.6284004505664946 1.4516291122270966, 1.1626011272719552 0.9137320032692311 C1.6968018039774158 0.37583489431136563, 2.905974770615816 0.1392700692143997, 3.2546494992845885 0 C3.603324227953361 -0.1392700692143997, 3.254649499284589 0.013018597997138823, 3.254649499284589 0.07811158798283291" stroke="none" stroke-width="0" fill="#004666"></path><path d="M3.254649499284589 0 C3.9171314837552558 -0.049864123264540185, 4.812497194591761 0.3758348943113651, 5.346697871297222 0.9137320032692307 C5.8808985480026825 1.4516291122270961, 6.338760097053665 2.4032764711733208, 6.459853559517352 3.2273826537471932 C6.580947021981039 4.051488836321066, 6.421933374748118 5.1336622842689135, 6.073258646079346 5.858369098712466 C5.724583917410573 6.583075913156019, 5.023099326673868 7.289414466792502, 4.36780518750472 7.575623540408509 C3.712511048335572 7.861832614024516, 2.7967879502336057 7.861832614024517, 2.141493811064458 7.57562354040851 C1.4861996718953099 7.289414466792503, 0.7847150811586039 6.583075913156019, 0.43604035248983175 5.858369098712466 C0.08736562382105961 5.1336622842689135, -0.07164802341186216 4.051488836321066, 0.04944543905182508 3.227382653747193 C0.17053890151551232 2.4032764711733203, 0.6284004505664946 1.4516291122270966, 1.1626011272719552 0.9137320032692311 C1.6968018039774158 0.37583489431136563, 2.905974770615816 0.1392700692143997, 3.2546494992845885 0 C3.603324227953361 -0.1392700692143997, 3.254649499284589 0.013018597997138823, 3.254649499284589 0.07811158798283291 M3.254649499284589 0 C3.9171314837552558 -0.049864123264540185, 4.812497194591761 0.3758348943113651, 5.346697871297222 0.9137320032692307 C5.8808985480026825 1.4516291122270961, 6.338760097053665 2.4032764711733208, 6.459853559517352 3.2273826537471932 C6.580947021981039 4.051488836321066, 6.421933374748118 5.1336622842689135, 6.073258646079346 5.858369098712466 C5.724583917410573 6.583075913156019, 5.023099326673868 7.289414466792502, 4.36780518750472 7.575623540408509 C3.712511048335572 7.861832614024516, 2.7967879502336057 7.861832614024517, 2.141493811064458 7.57562354040851 C1.4861996718953099 7.289414466792503, 0.7847150811586039 6.583075913156019, 0.43604035248983175 5.858369098712466 C0.08736562382105961 5.1336622842689135, -0.07164802341186216 4.051488836321066, 0.04944543905182508 3.227382653747193 C0.17053890151551232 2.4032764711733203, 0.6284004505664946 1.4516291122270966, 1.1626011272719552 0.9137320032692311 C1.6968018039774158 0.37583489431136563, 2.905974770615816 0.1392700692143997, 3.2546494992845885 0 C3.603324227953361 -0.1392700692143997, 3.254649499284589 0.013018597997138823, 3.254649499284589 0.07811158798283291" stroke="transparent" stroke-width="2" fill="none"></path></g><g><g stroke-opacity="0.8" fill-opacity="0.8" transform="translate(129.3198385027149 51.944331315808995) rotate(0 -4.375 4.375)"><path d="M0 0 C-1.25 0.625, -6.041666666666667 2.291666666666667, -7.5 3.75 C-8.958333333333334 5.208333333333333, -8.541666666666666 7.916666666666667, -8.75 8.75 M0 0 C-1.25 0.625, -6.041666666666667 2.291666666666667, -7.5 3.75 C-8.958333333333334 5.208333333333333, -8.541666666666666 7.916666666666667, -8.75 8.75" stroke="#0099cc" stroke-width="4" fill="none"></path></g></g><g><g transform="translate(184.9448385027149 51.319331315808995) rotate(71.56505117707799 -4.375 4.375)"><path d="M0 0 C-1.25 0.625, -6.041666666666667 2.291666666666667, -7.5 3.75 C-8.958333333333334 5.208333333333333, -8.541666666666666 7.916666666666667, -8.75 8.75 M0 0 C-1.25 0.625, -6.041666666666667 2.291666666666667, -7.5 3.75 C-8.958333333333334 5.208333333333333, -8.541666666666666 7.916666666666667, -8.75 8.75" stroke="#0099cc" stroke-width="4" fill="none"></path></g></g><g><g stroke-opacity="0.8" fill-opacity="0.8" transform="translate(170.88591576755607 96.23297396924681) rotate(0 -17.249991734858895 1.2335890457597998)"><path d="M-6.609055226366363 -0.9141807887703179 C-6.793733739011901 -0.8113049043721875, -7.235856031641264 0.9141075101836377, -9.424500004765687 1.4670798806059828 C-11.61314397789011 2.020052251028328, -16.797934312539375 2.6262924560466656, -19.740919065112895 2.403653433763753 C-22.683903817686414 2.1810144114808407, -26.07550821614928 0.3777201033913179, -27.08240852020681 0.13124574690850932 C-28.089308824264336 -0.11522860957429928, -25.862729903683064 0.790692027079601, -25.78232088945806 0.9248072948669015 M-7.500132385506621 1.2202703517861666 C-7.754938705411719 1.3937620099813322, -7.99886718626683 2.3026625795445197, -10.173494202704278 2.648151186868148 C-12.348121219141726 2.9936397941917763, -17.676181193402236 3.6111063248412556, -20.547894484131312 3.2932019957279373 C-23.41960777486039 2.975297666614619, -26.305247632484058 1.0363542073190792, -27.403773947078733 0.7407252121882375 C-28.50230026167341 0.4450962170573957, -27.455899206716566 1.6252652969571835, -27.139052371699364 1.5194280249428864" stroke="#0099cc" stroke-width="4" fill="none"></path></g></g></svg>